# xmcd CD database file
# Copyright (C) 1995 Ti Kan
#
# Track frame offsets:
#	182
#	22252
#	43435
#	64210
#	81832
#	96365
#	117530
#	141097
#	162400
#	183677
#	200422
#	214935
#	238660
#	267522
#	290655
#	309922
#	334522
#
# Disc length: 4745 seconds
#
# Revision: 1
# Processed by: cddbd v1.4b41PL1 Copyright (c) Steve Scherf et al.
# Submitted via: NotifyCDPlayer(CDDB) 1.07
#
DISCID=13128711
DTITLE=Lee Clayton - Border Affair and Naked Child
DYEAR=1900
DGENRE=
TTITLE0=Silver Stallion
TTITLE1=If You Can Touch Her At All
TTITLE2=Back Home In Tennessee
TTITLE3=Border Affair
TTITLE4=Old Number Nine
TTITLE5=Like A Diamond
TTITLE6=My Woman My Love
TTITLE7=Tequila Is Addictive
TTITLE8=My True Love
TTITLE9=Rainbow In The Sky
TTITLE10=Saturday Night Special
TTITLE11=I Ride Alone
TTITLE12=10000 Years/Sexual Moon
TTITLE13=I Love You
TTITLE14=Jaded Virgin
TTITLE15=A Little Cocaine
TTITLE16=If I Can Do It (So Can You)
EXTD=
EXTT0=
EXTT1=
EXTT2=
EXTT3=
EXTT4=
EXTT5=
EXTT6=
EXTT7=
EXTT8=
EXTT9=
EXTT10=
EXTT11=
EXTT12=
EXTT13=
EXTT14=
EXTT15=
EXTT16=
PLAYORDER=
